<svg width="39" height="42" viewBox="0 0 39 42" fill="none" xmlns="http://www.w3.org/2000/svg">
<path id="Vector" fill-rule="evenodd" clip-rule="evenodd" d="M20.0453 4.01776C19.6892 3.91302 19.3109 3.91302 18.9547 4.01776C18.8523 4.04792 18.6721 4.12335 18.2889 4.41637C17.8861 4.72454 17.3927 5.16557 16.624 5.85574L6.40679 15.029C5.15421 16.1537 4.79912 16.4929 4.55226 16.8679C4.31479 17.2287 4.13788 17.6266 4.02866 18.0455C3.91512 18.4812 3.9001 18.9744 3.9001 20.6672V30.5172C3.9001 32.2327 3.90168 33.3989 3.97574 34.2998C4.04787 35.1773 4.17856 35.6252 4.3392 35.9374C4.70921 36.6569 5.28999 37.2436 6.0023 37.6172C6.31151 37.7795 6.75492 37.9115 7.62352 37.9844C8.51544 38.0592 9.67007 38.0608 11.3685 38.0608H11.7V32.152C11.7 27.8009 15.1922 24.2736 19.5001 24.2736C23.8078 24.2736 27.3 27.8009 27.3 32.152V38.0608H27.6315C29.3299 38.0608 30.4845 38.0592 31.3765 37.9844C32.245 37.9115 32.6884 37.7795 32.9977 37.6172C33.71 37.2436 34.2907 36.6569 34.6608 35.9374C34.8215 35.6252 34.9521 35.1773 35.0243 34.2998C35.0982 33.3989 35.1 32.2327 35.1 30.5172V20.6672C35.1 18.9744 35.0849 18.4812 34.9713 18.0455C34.8621 17.6266 34.6852 17.2287 34.4477 16.8679C34.2008 16.4929 33.8457 16.1537 32.5932 15.029L22.3759 5.85574C21.6072 5.16557 21.1139 4.72454 20.711 4.41637C20.3278 4.12335 20.1477 4.04792 20.0453 4.01776ZM17.8642 0.235673C18.9326 -0.0785576 20.0673 -0.0785576 21.1357 0.235673C21.8769 0.453728 22.4915 0.83717 23.065 1.27576C23.6052 1.68883 24.2136 2.23498 24.914 2.86389L35.1842 12.0849C35.2396 12.1345 35.294 12.1835 35.348 12.2318C36.3653 13.1442 37.1336 13.8334 37.6956 14.6871C38.1704 15.4087 38.5243 16.2045 38.7427 17.0426C39.0011 18.0339 39.0007 19.0719 38.9999 20.4458C38.9999 20.5187 38.9999 20.5924 38.9999 20.6672V30.5999C38.9999 32.2121 38.9999 33.5427 38.9108 34.626C38.8184 35.7512 38.6197 36.7851 38.1216 37.7533C37.3816 39.1923 36.22 40.3654 34.7956 41.1129C33.8368 41.6159 32.8134 41.8166 31.6992 41.91C30.6267 42 29.3095 42 27.7132 42H26.9198C26.9046 42 26.8893 42 26.8737 42C26.6376 42 26.3556 42.0002 26.1072 41.9793C25.8192 41.9553 25.407 41.8932 24.9766 41.6673C24.4423 41.3871 24.0067 40.947 23.7292 40.4076C23.5057 39.9727 23.4443 39.5563 23.4203 39.2654C23.3997 39.0147 23.3998 38.7297 23.3998 38.4912L23.4 32.152C23.4 29.9764 21.6538 28.2128 19.5001 28.2128C17.3461 28.2128 15.6 29.9764 15.6 32.152L15.6 38.4912C15.6001 38.7297 15.6003 39.0147 15.5796 39.2654C15.5557 39.5563 15.4943 39.9727 15.2707 40.4076C14.9932 40.947 14.5576 41.3871 14.0234 41.6673C13.593 41.8932 13.1807 41.9553 12.8927 41.9793C12.6444 42.0002 12.3623 42 12.1261 42C12.1107 42 12.0954 42 12.0803 42H11.2867C9.69056 42 8.37325 42 7.30074 41.91C6.18661 41.8166 5.16319 41.6159 4.20449 41.1129C2.77989 40.3654 1.61833 39.1923 0.878309 37.7533C0.380322 36.7851 0.181676 35.7512 0.0891497 34.626C9.39486e-05 33.5427 0.00011367 32.2121 0.00013317 30.5999V20.6672C0.00013317 20.5924 9.40911e-05 20.5187 7.45912e-05 20.4458C-0.000646903 19.0719 -0.00117356 18.0339 0.257238 17.0426C0.475695 16.2045 0.82952 15.4087 1.30446 14.6871C1.86629 13.8334 2.63476 13.1442 3.65201 12.2318C3.7059 12.1835 3.76048 12.1345 3.81578 12.0849L14.086 2.86391C14.7865 2.23498 15.3947 1.68883 15.9349 1.27576C16.5084 0.83717 17.123 0.453728 17.8642 0.235673Z" fill="#0F1729"/>
</svg>
